<svg width="32" height="32" viewBox="0 0 32 32" fill="none" xmlns="http://www.w3.org/2000/svg">
<path d="M16 10.666L24 6.66602L16 2.66602V15.9993" stroke="#FBFBF9" stroke-width="2" stroke-linecap="round" stroke-linejoin="round"/>
<path d="M10.6655 15.9863L3.33218 20.173C3.12698 20.2893 2.95631 20.4579 2.83756 20.6617C2.71881 20.8655 2.65625 21.0971 2.65625 21.333C2.65625 21.5689 2.71881 21.8005 2.83756 22.0043C2.95631 22.2081 3.12698 22.3767 3.33218 22.493L14.6655 28.973C15.0709 29.207 15.5308 29.3303 15.9988 29.3303C16.4669 29.3303 16.9268 29.207 17.3322 28.973L28.6655 22.493C28.8707 22.3767 29.0414 22.2081 29.1601 22.0043C29.2789 21.8005 29.3414 21.5689 29.3414 21.333C29.3414 21.0971 29.2789 20.8655 29.1601 20.6617C29.0414 20.4579 28.8707 20.2893 28.6655 20.173L21.3322 15.9997" stroke="#FBFBF9" stroke-width="2" stroke-linecap="round" stroke-linejoin="round"/>
<path d="M8.65625 17.1328L23.3496 25.5328" stroke="#FBFBF9" stroke-width="2" stroke-linecap="round" stroke-linejoin="round"/>
<path d="M23.3441 17.1328L8.66406 25.5328" stroke="#FBFBF9" stroke-width="2" stroke-linecap="round" stroke-linejoin="round"/>
</svg>
